<svg width="14" height="14" viewBox="0 0 14 14" fill="none" xmlns="http://www.w3.org/2000/svg">
<path d="M11.6667 13.3581C11.6084 13.3581 11.5501 13.3581 11.4917 13.3581C9.62506 13.1247 7.75839 12.4831 6.18339 11.4914C4.72506 10.5581 3.44172 9.27474 2.50839 7.81641C1.45839 6.24141 0.816724 4.37474 0.641724 2.50807C0.641724 2.04141 0.75839 1.57474 1.05006 1.22474C1.34172 0.87474 1.75006 0.641406 2.21672 0.583073C2.27506 0.583073 2.33339 0.583073 2.39172 0.583073H4.14172C5.01672 0.583073 5.77506 1.22474 5.89172 2.09974C5.95006 2.62474 6.06672 3.14974 6.24172 3.61641C6.47506 4.25807 6.30006 4.95807 5.83339 5.48307L5.42506 5.89141C6.12506 6.94141 7.00006 7.87474 8.10839 8.57474L8.51672 8.16641C8.98339 7.69974 9.74172 7.52474 10.3834 7.75807C10.8501 7.93307 11.3751 8.04974 11.9001 8.10807C12.7751 8.22474 13.4167 8.98307 13.4167 9.85807V11.6081C13.4167 12.0747 13.2417 12.5414 12.8917 12.8331C12.5417 13.1247 12.1334 13.3581 11.6667 13.3581ZM4.14172 1.74974H2.39172C2.21672 1.74974 2.04172 1.86641 1.92506 1.98307C1.86672 2.09974 1.80839 2.21641 1.80839 2.39141C1.98339 4.08307 2.56672 5.71641 3.50006 7.17474C4.37506 8.51641 5.48339 9.68307 6.82506 10.4997C8.28339 11.4331 9.91672 12.0164 11.6084 12.1914C11.8417 12.1914 11.9584 12.1331 12.0751 12.0164C12.1917 11.8997 12.2501 11.7831 12.2501 11.6081V9.85807C12.2501 9.56641 12.0167 9.33307 11.7251 9.27474C11.1417 9.21641 10.5584 9.04141 9.97506 8.80807C9.74172 8.74974 9.50839 8.74974 9.33339 8.92474L8.57506 9.68307C8.40006 9.85807 8.10839 9.91641 7.87506 9.79974C6.30006 8.92474 5.01672 7.64141 4.14172 6.06641C4.08339 5.83307 4.14172 5.54141 4.31672 5.36641L5.07506 4.60807C5.19172 4.49141 5.25006 4.19974 5.19172 4.02474C4.95839 3.44141 4.84172 2.85807 4.72506 2.27474C4.72506 1.98307 4.43339 1.74974 4.14172 1.74974ZM11.0834 5.83307C10.7917 5.83307 10.5584 5.65807 10.5001 5.36641C10.3251 4.43307 9.56672 3.73307 8.63339 3.49974C8.34172 3.44141 8.10839 3.14974 8.16672 2.79974C8.22506 2.50807 8.51672 2.27474 8.86672 2.33307C10.2667 2.62474 11.3751 3.67474 11.6084 5.07474C11.6667 5.36641 11.4917 5.71641 11.1417 5.77474C11.1417 5.77474 11.1417 5.83307 11.0834 5.83307ZM13.4167 5.77474C13.1251 5.77474 12.8917 5.54141 12.8334 5.24974C12.6001 3.09141 10.9084 1.39974 8.69172 1.10807C8.40006 1.04974 8.16672 0.758073 8.16672 0.466406C8.16672 0.17474 8.51672 -0.0585938 8.80839 -0.0585938C11.5501 0.233073 13.6501 2.33307 13.9417 5.07474C14.0001 5.36641 13.7667 5.65807 13.4167 5.71641C13.4751 5.77474 13.4167 5.77474 13.4167 5.77474Z" fill="white"/>
</svg>
