<svg width="25" height="25" viewBox="0 0 25 25" fill="none" xmlns="http://www.w3.org/2000/svg">
<g clip-path="url(#clip0)">
<path d="M23.5122 16.9447L24.9778 7.58685C25.1302 6.63725 24.4841 5.74374 23.5344 5.59091L3.75849 2.41679C2.80888 2.2644 1.91543 2.91054 1.76304 3.86015L1.0603 8.23646V16.8903L23.5122 16.9447Z" fill="#146AA8"/>
<path d="M23.5344 5.59072L17.9177 4.68945C14.1452 10.4617 8.04687 14.4596 3.37012 16.8957L23.5122 16.9445L24.9778 7.58666C25.1302 6.63701 24.4841 5.74355 23.5344 5.59072Z" fill="#126099"/>
<path d="M1.74165 7.80176H21.7705C22.7323 7.80176 23.5122 8.58159 23.5122 9.54341V20.8641C23.5122 21.8259 22.7323 22.6057 21.7705 22.6057H1.74165C0.779832 22.6057 0 21.8259 0 20.8641V9.54341C0 8.58159 0.779832 7.80176 1.74165 7.80176Z" fill="#4398D1"/>
<path d="M21.7704 7.80176H21.4221C17.3118 15.0988 9.63163 20.1043 4.94312 22.6057H21.7704C22.7322 22.6057 23.5121 21.8259 23.5121 20.864V9.54341C23.5121 8.58159 22.7322 7.80176 21.7704 7.80176Z" fill="#3E8CC7"/>
<path d="M6.53109 9.97852H2.177V13.4618H6.53109V9.97852Z" fill="#FDB62F"/>
<path d="M3.48325 11.2842H2.177V12.155H3.48325V11.2842Z" fill="#FD7B2F"/>
<path d="M6.5311 11.2842H5.22485V12.155H6.5311V11.2842Z" fill="#FD7B2F"/>
<path d="M19.158 20.4283C20.3604 20.4283 21.3351 19.4536 21.3351 18.2513C21.3351 17.0489 20.3604 16.0742 19.158 16.0742C17.9557 16.0742 16.981 17.0489 16.981 18.2513C16.981 19.4536 17.9557 20.4283 19.158 20.4283Z" fill="#FDB62F"/>
<path d="M16.5455 20.4283C17.7478 20.4283 18.7225 19.4536 18.7225 18.2513C18.7225 17.0489 17.7478 16.0742 16.5455 16.0742C15.3431 16.0742 14.3684 17.0489 14.3684 18.2513C14.3684 19.4536 15.3431 20.4283 16.5455 20.4283Z" fill="#DE4C3C"/>
<path d="M4.35415 16.5098H1.7417V17.3806H4.35415V16.5098Z" fill="#87CED9"/>
<path d="M8.70815 16.5098H6.0957V17.3806H8.70815V16.5098Z" fill="#87CED9"/>
<path d="M13.0624 16.5098H10.45V17.3806H13.0624V16.5098Z" fill="#87CED9"/>
<path d="M13.0624 19.1221H1.7417V19.9929H13.0624V19.1221Z" fill="#87CED9"/>
<path d="M16.1103 9.97852H15.2395V11.7202H16.1103V9.97852Z" fill="#87CED9"/>
<path d="M17.8518 9.97852H16.981V11.7202H17.8518V9.97852Z" fill="#87CED9"/>
<path d="M19.5935 9.97852H18.7227V11.7202H19.5935V9.97852Z" fill="#87CED9"/>
<path d="M21.3352 9.97852H20.4644V11.7202H21.3352V9.97852Z" fill="#87CED9"/>
</g>
<defs>
<clipPath id="clip0">
<rect width="25" height="25" fill="white"/>
</clipPath>
</defs>
</svg>
