<svg width="22" height="15" viewBox="0 0 22 15" fill="none" xmlns="http://www.w3.org/2000/svg">
<path d="M18.8741 11.9336C18.2783 11.3163 17.3702 10.3845 15.6538 10.3845C13.9373 10.3845 13.0324 11.3163 12.4335 11.9336C11.8345 12.5509 11.6541 12.6922 11.1453 12.6922C10.6365 12.6922 10.4208 12.5076 9.85721 11.9307C9.29365 11.3538 8.35332 10.3845 6.63689 10.3845C4.92047 10.3845 4.01556 11.3163 3.41658 11.9307C2.8176 12.5451 2.63083 12.6922 2.12846 12.6922H0.840332V14.9999H2.12846C3.84166 14.9999 4.74979 14.0682 5.34877 13.4538C5.94775 12.8393 6.13775 12.6922 6.63689 12.6922C7.13604 12.6922 7.36146 12.8768 7.92502 13.4538C8.48857 14.0307 9.44179 14.9999 11.1453 14.9999C12.8489 14.9999 13.7667 14.0682 14.3656 13.4509C14.9646 12.8336 15.1578 12.6922 15.6538 12.6922C16.1497 12.6922 16.3751 12.8768 16.9419 13.4509C17.5087 14.0249 18.4522 14.9999 20.1622 14.9999H21.4503V12.6922H20.1622C19.6631 12.6922 19.4409 12.5076 18.8741 11.9336Z" fill="black"/>
<path d="M4.98826 3.31731C4.28623 4.10192 3.41675 5.07692 3.41675 6.92308V8.07692H5.993V6.92308C5.993 5.88462 6.39232 5.4375 6.99773 4.75962C7.69976 3.975 8.56925 3 8.56925 1.15385V0H5.993V1.15385C5.993 2.19231 5.59368 2.63942 4.98826 3.31731Z" fill="black"/>
<path d="M11.4287 3.31731C10.7267 4.10192 9.85718 5.07692 9.85718 6.92308V8.07692H12.4334V6.92308C12.4334 5.88462 12.8327 5.4375 13.4382 4.75962C14.1402 3.975 15.0097 3 15.0097 1.15385V0H12.4334V1.15385C12.4334 2.19231 12.0341 2.63942 11.4287 3.31731Z" fill="black"/>
<path d="M18.8741 1.15385C18.8741 2.19231 18.4748 2.63942 17.8694 3.31731C17.1673 4.10192 16.2979 5.07692 16.2979 6.92308V8.07692H18.8741V6.92308C18.8741 5.88462 19.2734 5.4375 19.8788 4.75962C20.5809 3.975 21.4504 3 21.4504 1.15385V0H18.8741V1.15385Z" fill="black"/>
</svg>
