<svg width="39" height="39" viewBox="0 0 39 39" fill="none" xmlns="http://www.w3.org/2000/svg">
<g clip-path="url(#clip0)">
<path d="M39.0001 19.4998C39.0001 25.9379 33.8001 31.1998 27.3001 31.1998C20.862 31.1998 15.6001 25.9379 15.6001 19.4998C15.6001 13.0617 20.8001 7.7998 27.2382 7.7998C33.8001 7.7998 39.0001 13.0617 39.0001 19.4998Z" fill="#FFB600"/>
<path d="M27.3001 7.7998C33.7382 7.7998 39.0001 13.0617 39.0001 19.4998C39.0001 25.9379 33.8001 31.1998 27.3001 31.1998C20.862 31.1998 15.6001 25.9379 15.6001 19.4998" fill="#F7981D"/>
<path d="M27.3 7.7998C33.7381 7.7998 39 13.0617 39 19.4998C39 25.9379 33.8 31.1998 27.3 31.1998" fill="#FF8500"/>
<path d="M11.5762 7.7998C5.2 7.86171 0 13.0617 0 19.4998C0 25.9379 5.2 31.1998 11.7 31.1998C14.7333 31.1998 17.4571 30.0236 19.5619 28.1665C19.9952 27.795 20.3667 27.3617 20.7381 26.9284H18.3238C18.0143 26.5569 17.7048 26.1236 17.4571 25.7522H21.6048C21.8524 25.3808 22.1 24.9474 22.2857 24.5141H16.7762C16.5905 24.1427 16.4048 23.7093 16.281 23.276H22.719C23.0905 22.0998 23.3381 20.8617 23.3381 19.5617C23.3381 18.695 23.2143 17.8903 23.0905 17.0855H15.9095C15.9714 16.6522 16.0952 16.2808 16.219 15.8474H22.6571C22.5333 15.4141 22.3476 14.9808 22.1619 14.6093H16.7143C16.9 14.176 17.1476 13.8046 17.3952 13.3712H21.5429C21.2952 12.9379 20.9857 12.5046 20.6143 12.1331H18.3238C18.6952 11.6998 19.0667 11.3284 19.5 10.9569C17.4571 9.0379 14.6714 7.92361 11.6381 7.92361C11.6381 7.7998 11.6381 7.7998 11.5762 7.7998Z" fill="#FF5050"/>
<path d="M0 19.5C0 25.9381 5.2 31.2 11.7 31.2C14.7333 31.2 17.4571 30.0238 19.5619 28.1667C19.9952 27.7953 20.3667 27.3619 20.7381 26.9286H18.3238C18.0143 26.5572 17.7048 26.1238 17.4571 25.7524H21.6048C21.8524 25.381 22.1 24.9476 22.2857 24.5143H16.7762C16.5905 24.1429 16.4048 23.7095 16.281 23.2762H22.719C23.0905 22.1 23.3381 20.8619 23.3381 19.5619C23.3381 18.6953 23.2143 17.8905 23.0905 17.0857H15.9095C15.9714 16.6524 16.0952 16.281 16.219 15.8476H22.6571C22.5333 15.4143 22.3476 14.981 22.1619 14.6095H16.7143C16.9 14.1762 17.1476 13.8048 17.3952 13.3714H21.5429C21.2952 12.9381 20.9857 12.5048 20.6143 12.1334H18.3238C18.6952 11.7 19.0667 11.3286 19.5 10.9572C17.4571 9.03811 14.6714 7.92383 11.6381 7.92383H11.5762" fill="#E52836"/>
<path d="M11.7 31.2C14.7333 31.2 17.4571 30.0238 19.5619 28.1667C19.9952 27.7953 20.3666 27.3619 20.7381 26.9286H18.3238C18.0143 26.5572 17.7047 26.1238 17.4571 25.7524H21.6047C21.8524 25.381 22.1 24.9476 22.2857 24.5143H16.7762C16.5905 24.1429 16.4047 23.7095 16.2809 23.2762H22.719C23.0905 22.1 23.3381 20.8619 23.3381 19.5619C23.3381 18.6953 23.2143 17.8905 23.0905 17.0857H15.9095C15.9714 16.6524 16.0952 16.281 16.219 15.8476H22.6571C22.5333 15.4143 22.3476 14.981 22.1619 14.6095H16.7143C16.9 14.1762 17.1476 13.8048 17.3952 13.3714H21.5428C21.2952 12.9381 20.9857 12.5048 20.6143 12.1334H18.3238C18.6952 11.7 19.0666 11.3286 19.5 10.9572C17.4571 9.03811 14.6714 7.92383 11.6381 7.92383H11.5762" fill="#CB2026"/>
<path d="M15.8475 22.472L16.0332 21.4197C15.9713 21.4197 15.8475 21.4816 15.7237 21.4816C15.2903 21.4816 15.2284 21.2339 15.2903 21.1101L15.6618 18.9435H16.3427L16.5284 17.7673H15.9094L16.0332 17.0244H14.7951C14.7951 17.0244 14.0522 21.1101 14.0522 21.6054C14.0522 22.3482 14.4856 22.6577 15.0427 22.6577C15.4141 22.6577 15.7237 22.5339 15.8475 22.472Z" fill="white"/>
<path d="M16.281 20.4908C16.281 22.2242 17.4572 22.6575 18.4477 22.6575C19.3762 22.6575 19.7477 22.4718 19.7477 22.4718L19.9953 21.2956C19.9953 21.2956 19.3143 21.6051 18.6953 21.6051C17.3334 21.6051 17.581 20.6146 17.581 20.6146H20.1191C20.1191 20.6146 20.3048 19.8099 20.3048 19.5003C20.3048 18.6956 19.8715 17.7051 18.5096 17.7051C17.2096 17.5813 16.281 18.9432 16.281 20.4908ZM18.4477 18.6956C19.1286 18.6956 19.0048 19.5003 19.0048 19.5622H17.6429C17.6429 19.5003 17.7667 18.6956 18.4477 18.6956Z" fill="white"/>
<path d="M26.3095 22.4715L26.5572 21.1096C26.5572 21.1096 25.9381 21.4192 25.5048 21.4192C24.6381 21.4192 24.2667 20.7382 24.2667 19.9954C24.2667 18.5096 25.0095 17.7049 25.8762 17.7049C26.4953 17.7049 26.9905 18.0763 26.9905 18.0763L27.1762 16.7763C27.1762 16.7763 26.4334 16.4668 25.7524 16.4668C24.3286 16.4668 22.9048 17.7049 22.9048 20.0573C22.9048 21.6049 23.6476 22.6573 25.1334 22.6573C25.6286 22.6573 26.3095 22.4715 26.3095 22.4715Z" fill="white"/>
<path d="M9.03817 17.5811C8.1715 17.5811 7.55246 17.8287 7.55246 17.8287L7.36674 18.8811C7.36674 18.8811 7.92388 18.6334 8.72864 18.6334C9.16198 18.6334 9.5334 18.6953 9.5334 19.0668C9.5334 19.3144 9.4715 19.3763 9.4715 19.3763C9.4715 19.3763 9.10007 19.3763 8.91436 19.3763C7.86198 19.3763 6.68579 19.8096 6.68579 21.2334C6.68579 22.3477 7.42865 22.5953 7.86198 22.5953C8.72864 22.5953 9.10007 22.0382 9.16198 22.0382L9.10007 22.5334H10.2144L10.7096 19.1287C10.7096 17.643 9.4715 17.5811 9.03817 17.5811ZM9.28579 20.3668C9.28579 20.5525 9.16198 21.5429 8.41912 21.5429C8.04769 21.5429 7.92388 21.2334 7.92388 21.0477C7.92388 20.7382 8.1096 20.3049 9.03817 20.3049C9.22388 20.3668 9.28579 20.3668 9.28579 20.3668Z" fill="white"/>
<path d="M11.8857 22.5957C12.1952 22.5957 13.7429 22.6576 13.7429 20.9862C13.7429 19.4386 12.2572 19.7481 12.2572 19.1291C12.2572 18.8195 12.5048 18.6957 12.9381 18.6957C13.1238 18.6957 13.8048 18.7576 13.8048 18.7576L13.9905 17.6433C13.9905 17.6433 13.5572 17.5195 12.8143 17.5195C11.8857 17.5195 10.9572 17.891 10.9572 19.1291C10.9572 20.5529 12.5048 20.4291 12.5048 20.9862C12.5048 21.3576 12.0714 21.4195 11.7619 21.4195C11.2048 21.4195 10.6476 21.2338 10.6476 21.2338L10.4619 22.3481C10.5238 22.4719 10.8333 22.5957 11.8857 22.5957Z" fill="white"/>
<path d="M36.5857 16.5908L36.3381 18.2622C36.3381 18.2622 35.8428 17.6432 35.1619 17.6432C34.0476 17.6432 33.0571 19.0051 33.0571 20.6146C33.0571 21.6051 33.5524 22.6575 34.6047 22.6575C35.3476 22.6575 35.7809 22.1622 35.7809 22.1622L35.719 22.5956H36.9571L37.8857 16.6527L36.5857 16.5908ZM36.0286 19.8718C36.0286 20.5527 35.719 21.4194 35.0381 21.4194C34.6047 21.4194 34.3571 21.048 34.3571 20.4289C34.3571 19.4384 34.7905 18.8194 35.3476 18.8194C35.7809 18.8194 36.0286 19.1289 36.0286 19.8718Z" fill="white"/>
<path d="M2.29045 22.5337L3.03331 18.0765L3.15711 22.5337H4.02378L5.63331 18.0765L4.95235 22.5337H6.25235L7.24283 16.5908H5.19997L3.96188 20.2432L3.89997 16.5908H2.10473L1.11426 22.5337H2.29045Z" fill="white"/>
<path d="M21.481 22.5336C21.8525 20.4908 21.9144 18.8194 22.781 19.1289C22.9049 18.3241 23.0906 18.0146 23.2144 17.7051C23.2144 17.7051 23.1525 17.7051 22.9668 17.7051C22.4096 17.7051 21.9763 18.4479 21.9763 18.4479L22.1001 17.767H20.9239L20.1191 22.5955H21.481V22.5336Z" fill="white"/>
<path d="M29.1571 17.5811C28.2904 17.5811 27.6714 17.8287 27.6714 17.8287L27.4856 18.8811C27.4856 18.8811 28.0428 18.6334 28.8475 18.6334C29.2809 18.6334 29.6523 18.6953 29.6523 19.0668C29.6523 19.3144 29.5904 19.3763 29.5904 19.3763C29.5904 19.3763 29.219 19.3763 29.0333 19.3763C27.9809 19.3763 26.8047 19.8096 26.8047 21.2334C26.8047 22.3477 27.5475 22.5953 27.9809 22.5953C28.8475 22.5953 29.219 22.0382 29.2809 22.0382L29.219 22.5334H30.3333L30.8285 19.1287C30.8904 17.643 29.5904 17.5811 29.1571 17.5811ZM29.4666 20.3668C29.4666 20.5525 29.3428 21.5429 28.5999 21.5429C28.2285 21.5429 28.1047 21.2334 28.1047 21.0477C28.1047 20.7382 28.2904 20.3049 29.219 20.3049C29.4047 20.3668 29.4047 20.3668 29.4666 20.3668Z" fill="white"/>
<path d="M31.8809 22.5336C32.2524 20.4908 32.3143 18.8194 33.181 19.1289C33.3048 18.3241 33.4905 18.0146 33.6143 17.7051C33.6143 17.7051 33.5524 17.7051 33.3667 17.7051C32.8095 17.7051 32.3762 18.4479 32.3762 18.4479L32.5 17.767H31.3238L30.519 22.5955H31.8809V22.5336Z" fill="white"/>
<path d="M13.9285 21.6054C13.9285 22.3482 14.3618 22.6577 14.9189 22.6577C15.3523 22.6577 15.7237 22.5339 15.8475 22.472L16.0332 21.4197C15.9713 21.4197 15.8475 21.4816 15.7237 21.4816C15.2904 21.4816 15.2285 21.2339 15.2904 21.1101L15.6618 18.9435H16.3428L16.5285 17.7673H15.9094L16.0332 17.0244" fill="#DCE5E5"/>
<path d="M16.8999 20.4908C16.8999 22.2242 17.457 22.6575 18.4475 22.6575C19.3761 22.6575 19.7475 22.4718 19.7475 22.4718L19.9951 21.2956C19.9951 21.2956 19.3142 21.6051 18.6951 21.6051C17.3332 21.6051 17.5809 20.6146 17.5809 20.6146H20.119C20.119 20.6146 20.3047 19.8099 20.3047 19.5003C20.3047 18.6956 19.8713 17.7051 18.5094 17.7051C17.2094 17.5813 16.8999 18.9432 16.8999 20.4908ZM18.4475 18.6956C19.1285 18.6956 19.2523 19.5003 19.2523 19.5622H17.6428C17.6428 19.5003 17.7666 18.6956 18.4475 18.6956Z" fill="#DCE5E5"/>
<path d="M26.3096 22.4715L26.5573 21.1096C26.5573 21.1096 25.9382 21.4192 25.5049 21.4192C24.6382 21.4192 24.2668 20.7382 24.2668 19.9954C24.2668 18.5096 25.0096 17.7049 25.8763 17.7049C26.4954 17.7049 26.9906 18.0763 26.9906 18.0763L27.1763 16.7763C27.1763 16.7763 26.4334 16.4668 25.7525 16.4668C24.3287 16.4668 23.5239 17.7049 23.5239 20.0573C23.5239 21.6049 23.6477 22.6573 25.1334 22.6573C25.6287 22.6573 26.3096 22.4715 26.3096 22.4715Z" fill="#DCE5E5"/>
<path d="M7.36674 18.9432C7.36674 18.9432 7.92388 18.6956 8.72864 18.6956C9.16198 18.6956 9.5334 18.7575 9.5334 19.1289C9.5334 19.3765 9.4715 19.4384 9.4715 19.4384C9.4715 19.4384 9.10007 19.4384 8.91436 19.4384C7.86198 19.4384 6.68579 19.8717 6.68579 21.2955C6.68579 22.4098 7.42865 22.6574 7.86198 22.6574C8.72864 22.6574 9.10007 22.1003 9.16198 22.1003L9.10007 22.5955H10.2144L10.7096 19.1908C10.7096 17.767 9.4715 17.7051 8.97626 17.7051L7.36674 18.9432ZM9.90483 20.367C9.90483 20.5527 9.16198 21.5432 8.41912 21.5432C8.04769 21.5432 7.92388 21.2336 7.92388 21.0479C7.92388 20.7384 8.1096 20.3051 9.03817 20.3051C9.22388 20.367 9.90483 20.367 9.90483 20.367Z" fill="#DCE5E5"/>
<path d="M10.5239 22.4719C10.5239 22.4719 10.8954 22.5957 11.9477 22.5957C12.2573 22.5957 13.8049 22.6576 13.8049 20.9862C13.8049 19.4386 12.3192 19.7481 12.3192 19.1291C12.3192 18.8195 12.5668 18.6957 13.0001 18.6957C13.1858 18.6957 13.8668 18.7576 13.8668 18.7576L14.0525 17.6433C14.0525 17.6433 13.6192 17.5195 12.8763 17.5195C11.9477 17.5195 11.6382 17.891 11.6382 19.1291C11.6382 20.5529 12.5668 20.4291 12.5668 20.9862C12.5668 21.3576 12.1334 21.4195 11.8239 21.4195" fill="#DCE5E5"/>
<path d="M36.338 18.2619C36.338 18.2619 35.8428 17.6428 35.1618 17.6428C34.0476 17.6428 33.6761 19.0047 33.6761 20.6142C33.6761 21.6047 33.5523 22.6571 34.6047 22.6571C35.3476 22.6571 35.7809 22.1619 35.7809 22.1619L35.719 22.5952H36.9571L37.8857 16.6523L36.338 18.2619ZM36.2761 19.8714C36.2761 20.5523 35.719 21.419 35.038 21.419C34.6047 21.419 34.3571 21.0476 34.3571 20.4285C34.3571 19.4381 34.7904 18.819 35.3476 18.819C35.7809 18.819 36.2761 19.1285 36.2761 19.8714Z" fill="#DCE5E5"/>
<path d="M2.29045 22.5337L3.03331 18.0765L3.15711 22.5337H4.02378L5.63331 18.0765L4.95235 22.5337H6.25235L7.24283 16.5908H5.69521L3.96188 20.2432L3.89997 16.5908H3.21902L1.11426 22.5337H2.29045Z" fill="#DCE5E5"/>
<path d="M20.1809 22.5336H21.4809C21.8523 20.4908 21.9142 18.8194 22.7809 19.1289C22.9047 18.3241 23.0904 18.0146 23.2142 17.7051C23.2142 17.7051 23.1523 17.7051 22.9666 17.7051C22.4095 17.7051 21.9761 18.4479 21.9761 18.4479L22.1 17.767" fill="#DCE5E5"/>
<path d="M27.4856 18.9432C27.4856 18.9432 28.0428 18.6956 28.8475 18.6956C29.2809 18.6956 29.6523 18.7575 29.6523 19.1289C29.6523 19.3765 29.5904 19.4384 29.5904 19.4384C29.5904 19.4384 29.219 19.4384 29.0333 19.4384C27.9809 19.4384 26.8047 19.8717 26.8047 21.2955C26.8047 22.4098 27.5475 22.6574 27.9809 22.6574C28.8475 22.6574 29.219 22.1003 29.2809 22.1003L29.219 22.5955H30.3333L30.8285 19.1908C30.8285 17.767 29.5904 17.7051 29.0952 17.7051L27.4856 18.9432ZM30.0237 20.367C30.0237 20.5527 29.2809 21.5432 28.538 21.5432C28.1666 21.5432 28.0428 21.2336 28.0428 21.0479C28.0428 20.7384 28.2285 20.3051 29.1571 20.3051C29.4047 20.367 30.0237 20.367 30.0237 20.367Z" fill="#DCE5E5"/>
<path d="M30.5808 22.5336H31.8808C32.2522 20.4908 32.3141 18.8194 33.1808 19.1289C33.3046 18.3241 33.4903 18.0146 33.6141 17.7051C33.6141 17.7051 33.5522 17.7051 33.3665 17.7051C32.8094 17.7051 32.376 18.4479 32.376 18.4479L32.4999 17.767" fill="#DCE5E5"/>
</g>
<defs>
<clipPath id="clip0">
<rect width="39" height="39" fill="white"/>
</clipPath>
</defs>
</svg>
