<svg width="16" height="17" viewBox="0 0 16 17" fill="none" xmlns="http://www.w3.org/2000/svg">
<path d="M12.3635 7.05027C12.196 7.05027 12.0285 6.996 11.9007 6.8872C10.8587 6.00157 9.47361 5.51374 8.00001 5.51374C6.52657 5.51374 5.14113 6.00143 4.09921 6.88707C3.84353 7.10453 3.42913 7.10453 3.17345 6.88707C2.91777 6.66987 2.91777 6.31763 3.17345 6.10031C4.46273 5.00455 6.17681 4.40112 8.00001 4.40112C9.82321 4.40112 11.5373 5.00469 12.8264 6.10044C13.0821 6.31777 13.0821 6.67001 12.8264 6.8872C12.6987 6.99587 12.5311 7.05027 12.3635 7.05027Z" fill="black"/>
<path d="M14.5454 5.34575C14.3779 5.34575 14.2102 5.29149 14.0825 5.18283C12.4579 3.80161 10.2976 3.0411 7.99997 3.0411C5.70237 3.0411 3.54205 3.80161 1.91741 5.18269C1.66189 5.40002 1.24733 5.40002 0.991809 5.18269C0.736129 4.9655 0.736129 4.61312 0.991809 4.39593C2.86349 2.80473 5.35245 1.92834 7.99997 1.92834C10.6475 1.92834 13.1364 2.80473 15.0083 4.39593C15.264 4.61326 15.264 4.9655 15.0083 5.18283C14.8804 5.29135 14.7129 5.34575 14.5454 5.34575Z" fill="black"/>
<path d="M5.96372 8.7548C5.7962 8.7548 5.62868 8.70053 5.50084 8.592C5.24516 8.37454 5.24516 8.02244 5.50084 7.80511C6.20724 7.20453 7.14644 6.87378 8.14548 6.87378C9.14452 6.87378 10.0836 7.20453 10.7901 7.80511C11.0458 8.02244 11.0458 8.37468 10.79 8.592C10.5343 8.80906 10.1199 8.8092 9.86436 8.59187C9.40532 8.20155 8.7946 7.98667 8.14548 7.98667C7.49604 7.98667 6.88548 8.20155 6.42644 8.59187C6.29876 8.70053 6.13124 8.7548 5.96372 8.7548Z" fill="black"/>
<path d="M8.15704 11.6717C7.44376 11.6717 6.86328 11.1783 6.86328 10.5719C6.86328 9.96547 7.44376 9.47192 8.15704 9.47192C8.87064 9.47192 9.45112 9.96547 9.45112 10.5719C9.45112 11.1783 8.87064 11.6717 8.15704 11.6717Z" fill="black"/>
</svg>
