<svg width="42" height="21" viewBox="0 0 42 21" fill="none" xmlns="http://www.w3.org/2000/svg">
<g clip-path="url(#clip0)">
<path d="M38.0935 6.7359L36.3264 8.418L36.2683 8.37254C36.47 7.60668 36.6716 6.83732 36.8767 6.07146C37.3894 4.16555 37.9021 2.26313 38.4182 0.35722C38.4182 0.350226 38.4182 0.343232 38.4182 0.339735C38.4182 0.245313 38.4661 0.157886 38.5481 0.112424C38.6711 0.0914414 38.6677 0.234822 38.7122 0.315255C38.9753 0.811841 39.1736 1.3399 39.4812 1.81201C39.7717 2.53241 40.1101 3.24931 40.4758 3.93124C40.5203 4.00118 40.5476 4.08162 40.5476 4.16555C40.5476 4.30893 40.4758 4.44531 40.3562 4.52225C39.5872 5.25314 38.842 5.99802 38.0935 6.7359Z" fill="#F07A25"/>
<path d="M38.0935 6.73523C38.8455 5.99734 39.5906 5.25246 40.3528 4.52507C40.4724 4.44813 40.5442 4.31175 40.5442 4.16837C40.5442 4.08444 40.5203 4.00051 40.4724 3.93406C40.1033 3.25213 39.7683 2.53523 39.4778 1.81483L40.0042 0.00683594C40.2229 0.436978 40.4041 0.790183 40.5784 1.14689C41.0193 2.04564 41.45 2.95138 41.908 3.84314C41.9695 3.93057 42.0002 4.03548 42.0002 4.14389C42.0002 4.32224 41.9114 4.4901 41.761 4.58452C40.51 5.77003 39.283 6.98352 38.0491 8.18652C37.9705 8.29143 37.8645 8.37187 37.7415 8.41383C37.8987 7.86479 38.0183 7.30176 38.0935 6.73523Z" fill="#0C8D48"/>
<path fill-rule="evenodd" clip-rule="evenodd" d="M10.3795 4.25595C10.6393 4.37835 10.8068 4.64413 10.8068 4.93439C10.8068 5.05329 10.7794 5.17219 10.7248 5.2771C10.5197 5.95903 10.3522 6.64796 10.1676 7.33689C10.1164 7.98734 9.58316 8.48743 8.94742 8.48743C8.87564 8.48743 8.80386 8.48043 8.73209 8.46644C5.90543 8.46644 3.08218 8.46994 0.255523 8.47344C0.0333552 8.47344 -0.0486761 8.45246 0.0231012 8.19717C0.751129 5.56037 1.4689 2.92007 2.18326 0.279767C2.20035 0.122398 2.33023 0 2.48404 0C2.49771 0 2.5148 0 2.52847 0.00349709C5.43716 0.0104913 8.34927 0.00699417 11.258 0.0139883C11.299 0.00699417 11.34 0 11.381 0C11.7057 0 11.9655 0.269276 11.9655 0.598002C11.9655 0.681932 11.9484 0.762365 11.9142 0.839301C11.6955 1.72057 11.4562 2.59484 11.2067 3.46911C11.0734 3.85379 10.7658 4.14754 10.3795 4.25595ZM29.1852 20.9615H27.5309L29.8278 12.4776H31.4787L29.1852 20.9615ZM15.4518 20.43C15.3629 20.7657 15.0587 21 14.7204 21H6.20279C5.97037 21 5.79605 20.9196 5.68326 20.7587C5.57046 20.5978 5.54312 20.395 5.61148 20.1572L7.68961 12.4986H9.3439L7.48795 19.3389H14.0983L15.9543 12.4986H17.6051L15.4518 20.43ZM28.3273 12.7434C28.2145 12.5825 28.0368 12.5021 27.7975 12.5021H18.716L18.2682 14.1667H26.5294L26.0475 15.9432H19.4372V15.9397H17.7863L16.4157 21.0035H18.0666L18.986 17.6078H26.4132C26.6457 17.6078 26.8644 17.5274 27.0695 17.3665C27.2746 17.2057 27.4079 17.0028 27.4728 16.765L28.3922 13.3694C28.4606 13.1106 28.4401 12.9042 28.3273 12.7434ZM17.2531 3.41665C18.2033 3.41665 19.1535 3.39917 20.1037 3.42714C20.1242 3.42714 20.1447 3.43064 20.1652 3.43064C20.4044 3.43064 20.5993 3.2418 20.6164 3.0005C20.8385 2.13322 21.0778 1.26944 21.2863 0.398668C21.2931 0.174854 21.4709 0 21.6862 0C21.7169 0 21.7443 0.00349709 21.7751 0.0104913C21.9323 0.0209825 22.0895 0.0279767 22.2502 0.0279767C22.404 0.0279767 22.5612 0.0209825 22.715 0.0104913C22.9679 -0.00349709 23.026 0.0734388 22.9543 0.328726C22.5954 1.62964 22.2536 2.93755 21.9049 4.23847C21.57 5.49392 21.2282 6.74938 20.9035 8.00833C20.8966 8.27061 20.6881 8.48043 20.4318 8.48043C20.3942 8.48043 20.3566 8.47694 20.319 8.46644C20.1618 8.45246 20.0045 8.44546 19.8473 8.44546C19.7038 8.44546 19.5602 8.45246 19.4167 8.46295C19.174 8.47344 19.1364 8.39301 19.2013 8.1622C19.4611 7.25296 19.6935 6.33672 19.9499 5.42748C20.0251 5.1617 19.9909 5.05329 19.6833 5.05679C17.7487 5.07077 15.8107 5.07077 13.8761 5.06028C13.8556 5.05679 13.8351 5.05679 13.8146 5.05679C13.6027 5.05679 13.4284 5.22465 13.4181 5.44147C13.1925 6.3577 12.9294 7.26694 12.6935 8.17968C12.6798 8.34754 12.5431 8.47344 12.3791 8.47344C12.3586 8.47344 12.338 8.46994 12.3175 8.46644C12.1535 8.45595 11.9826 8.45246 11.8185 8.45246C11.6476 8.45246 11.4767 8.45945 11.3092 8.46994C10.9572 8.49442 11.0153 8.30908 11.0768 8.08526C11.4562 6.67594 11.8356 5.26311 12.2116 3.85379C12.5294 2.66828 12.8473 1.48276 13.1584 0.297252C13.1686 0.136386 13.2985 0.0104913 13.4557 0.0104913C13.4694 0.0104913 13.4865 0.0104913 13.5002 0.0139883C13.859 0.0314738 14.2213 0.0314738 14.5802 0.0139883C14.8297 0.00349709 14.8571 0.0979184 14.7956 0.321732C14.5392 1.25545 14.3034 2.19617 14.0402 3.12989C13.9684 3.37818 14.0299 3.42714 14.2589 3.42365C15.257 3.40966 16.255 3.41665 17.2531 3.41665ZM24.9503 0.0384679C25.07 0.0384679 25.1896 0.0384679 25.3092 0.0384679C25.7878 0.0384679 25.7912 0.038468 25.6681 0.489592C24.9982 2.97252 24.3283 5.45895 23.6549 7.94188C23.5045 8.49792 23.4977 8.49792 22.9406 8.49792C22.6774 8.49792 22.4108 8.49092 22.1476 8.50142C21.9118 8.51191 21.8639 8.43147 21.9289 8.19367C22.568 5.86461 23.1969 3.53206 23.8258 1.1995C23.9044 0.954704 23.9694 0.706411 24.0172 0.454621C24.0172 0.447627 24.0172 0.44413 24.0172 0.437136C24.0172 0.202831 24.2018 0.0174854 24.4308 0.0174854C24.4718 0.0174854 24.5163 0.0244796 24.5539 0.0384679C24.6256 0.0454621 24.7008 0.0454621 24.776 0.0454621C24.8307 0.041965 24.8922 0.041965 24.9503 0.0384679ZM34.2062 4.57769C33.9294 4.82948 33.6525 5.07427 33.3825 5.32956C32.3468 6.30175 31.318 7.28093 30.2858 8.26012C30.1149 8.42448 30.026 8.45246 29.8927 8.21116C29.1305 6.8438 28.3546 5.48693 27.5822 4.12656C27.5583 4.09159 27.5275 4.05662 27.4967 4.02864C27.3805 4.17902 27.3053 4.36436 27.2882 4.5567C26.9635 5.73872 26.6491 6.92423 26.3415 8.11324C26.3346 8.31607 26.174 8.47344 25.9757 8.47344C25.9518 8.47344 25.9279 8.46994 25.904 8.46644C25.5587 8.43847 25.2067 8.45595 24.8581 8.46295C24.6974 8.46644 24.6085 8.44197 24.6667 8.23214C25.3913 5.55687 26.1125 2.8781 26.8302 0.199334C26.8473 0.171357 26.8678 0.143381 26.8918 0.118901C27.0319 0.248293 27.1447 0.405662 27.2233 0.580516C28.2008 2.24513 29.175 3.90974 30.1491 5.57785C30.3678 5.95204 30.361 5.94505 30.6891 5.65829C32.4528 4.11957 34.2165 2.58085 35.987 1.04913C36.3424 0.741382 36.6945 0.430142 37.0807 0.0944213C37.0876 0.136386 37.091 0.181848 37.091 0.227311C37.091 0.363697 37.0568 0.500083 36.9953 0.618984C36.3253 3.13339 35.6452 5.6443 34.9787 8.1552C34.9684 8.33356 34.8214 8.47344 34.6471 8.47344C34.6266 8.47344 34.6061 8.46994 34.589 8.46644C34.4181 8.45595 34.2438 8.45246 34.0729 8.45246C33.9088 8.45246 33.7414 8.45595 33.5773 8.46644C33.2902 8.48393 33.2663 8.37552 33.338 8.12023C33.6422 7.02215 33.9328 5.91707 34.2267 4.81549C34.2438 4.78401 34.2541 4.74904 34.2541 4.71407C34.2541 4.66162 34.237 4.61266 34.2062 4.57769ZM3.77603 1.66461C5.61832 1.68909 7.45377 1.66112 9.29263 1.66112C9.61734 1.66112 9.88052 1.93039 9.88052 2.26261C9.88052 2.34654 9.86343 2.43047 9.82925 2.51091C9.73697 3.03547 9.28922 3.42015 8.76627 3.42015C6.94791 3.41665 5.12613 3.41665 3.30435 3.42714C3.00357 3.42714 2.99332 3.30475 3.06851 3.06694C3.18814 2.71724 3.28726 2.36403 3.36246 2.00383C3.36587 1.81149 3.51968 1.66112 3.70767 1.66112C3.7316 1.65762 3.7521 1.66112 3.77603 1.66461ZM2.77115 5.06028C4.59976 5.06028 6.43179 5.06378 8.26382 5.07077C8.89273 5.07427 9.14224 5.66528 8.7731 6.27377C8.57486 6.61649 8.21597 6.82631 7.82632 6.82631C6.03189 6.82631 4.24087 6.80533 2.44644 6.82981C2.16959 6.83331 2.0397 6.79484 2.1525 6.46611C2.27896 6.09542 2.36783 5.71074 2.46011 5.33306C2.48404 5.17569 2.61734 5.06028 2.77115 5.06028Z" fill="#66686C"/>
<path fill-rule="evenodd" clip-rule="evenodd" d="M34.3372 12.4912L36.4255 16.7437L32.03 20.9961L32.553 19.0692L34.9558 16.7437L33.8142 14.4181L34.3372 12.4912Z" fill="#0E8635"/>
<path fill-rule="evenodd" clip-rule="evenodd" d="M32.8672 12.4912L34.9556 16.7437L30.5601 20.9961L32.8672 12.4912Z" fill="#E97208"/>
</g>
<defs>
<clipPath id="clip0">
<rect width="42" height="21" fill="white"/>
</clipPath>
</defs>
</svg>
