<svg width="16" height="13" viewBox="0 0 16 13" fill="none" xmlns="http://www.w3.org/2000/svg">
<path d="M7.74667 0C6.31149 0 4.90853 0.381218 3.71521 1.09545C2.5219 1.80968 1.59182 2.82484 1.0426 4.01256C0.493379 5.20028 0.349677 6.50721 0.629668 7.76809C0.909659 9.02896 1.60077 10.1872 2.6156 11.0962C3.63043 12.0052 4.9234 12.6243 6.33101 12.8751C7.73862 13.1259 9.19765 12.9972 10.5236 12.5052C11.8495 12.0132 12.9828 11.1801 13.7802 10.1112C14.5775 9.04229 15.0031 7.78558 15.0031 6.5C15.0031 4.77609 14.2386 3.12279 12.8777 1.90381C11.5169 0.684819 9.6712 0 7.74667 0ZM7.74667 12.6486C6.38906 12.6486 5.06194 12.288 3.93313 11.6124C2.80432 10.9368 1.92452 9.9765 1.40498 8.85298C0.885449 7.72947 0.749514 6.49318 1.01437 5.30046C1.27923 4.10774 1.93298 3.01215 2.89295 2.15225C3.85293 1.29234 5.07601 0.706743 6.40753 0.469496C7.73906 0.232249 9.11922 0.354013 10.3735 0.819389C11.6278 1.28477 12.6998 2.07285 13.454 3.08399C14.2083 4.09513 14.6109 5.28391 14.6109 6.5C14.6109 8.13072 13.8877 9.69465 12.6004 10.8477C11.3131 12.0008 9.56717 12.6486 7.74667 12.6486Z" fill="black"/>
<path d="M11.2258 4.66783L6.96211 5.69202C6.85025 5.72023 6.74763 5.77216 6.66291 5.84342C6.5782 5.91467 6.51388 6.00314 6.47541 6.10137C6.43694 6.19959 6.42543 6.30466 6.44187 6.40771C6.45832 6.51075 6.50222 6.60873 6.56987 6.69337L4.12229 7.27661C3.98447 7.3097 3.86068 7.37864 3.76658 7.47472C3.67249 7.5708 3.61229 7.68971 3.59361 7.81643C3.57493 7.94314 3.59861 8.07197 3.66164 8.18664C3.72467 8.30131 3.82423 8.39667 3.94774 8.46067L9.56462 11.3646C9.67387 11.4225 9.79855 11.4528 9.92548 11.4524C10.0384 11.4525 10.1498 11.4288 10.2506 11.3833C10.3515 11.3377 10.439 11.2717 10.5062 11.1903C10.5733 11.109 10.6182 11.0147 10.6373 10.915C10.6563 10.8152 10.649 10.7129 10.6158 10.6162L9.88233 8.47999L12.3985 9.78175C12.509 9.83868 12.634 9.86895 12.7614 9.86959C12.9247 9.86878 13.0829 9.81864 13.2105 9.72729C13.3259 9.64623 13.4108 9.53536 13.4536 9.40967C13.4964 9.28399 13.4951 9.14956 13.4498 9.02459L12.1024 5.1035C12.0482 4.94304 11.9263 4.8078 11.7627 4.72647C11.599 4.64513 11.4064 4.6241 11.2258 4.66783ZM11.3277 5.00688C11.3564 5.0042 11.3853 5.0042 11.414 5.00688C11.4842 5.00675 11.5526 5.02683 11.6091 5.06415C11.6656 5.10147 11.7072 5.15407 11.7278 5.21418L12.934 8.72769L7.51713 5.92215L11.3277 5.00688ZM10.1294 11.0361C10.0787 11.0744 10.0157 11.0973 9.94953 11.1018C9.88334 11.1062 9.81728 11.0918 9.76074 11.0607L4.14386 8.15675C4.08646 8.12877 4.04016 8.08552 4.01136 8.03297C3.98255 7.98042 3.97266 7.92117 3.98305 7.86337C3.98841 7.81614 4.0073 7.77094 4.03788 7.73217C4.06846 7.69339 4.10969 7.66234 4.15759 7.64202L10.253 10.7936C10.2564 10.8401 10.2469 10.8865 10.2253 10.9288C10.2038 10.9711 10.1708 11.008 10.1294 11.0361ZM10.1 10.3088L4.68123 7.49796L6.94838 6.95337L7.53674 7.25553L5.83442 7.66486L5.9364 8.00391L8.01723 7.50323L8.85859 7.93891L7.15823 8.35702L7.26021 8.69607L8.97626 8.28323L8.88016 7.95823L9.39007 8.22175L10.1 10.3088ZM12.9653 9.45323C12.914 9.49119 12.8508 9.51394 12.7844 9.51835C12.718 9.52275 12.6517 9.50859 12.5947 9.47783L6.97976 6.57215C6.9283 6.54619 6.8857 6.50819 6.85651 6.4622C6.82732 6.41621 6.81264 6.36398 6.81405 6.3111C6.81546 6.25821 6.83291 6.20667 6.86451 6.16198C6.89612 6.1173 6.9407 6.08115 6.99349 6.05742L13.0889 9.20904C13.0923 9.25571 13.0828 9.3024 13.0612 9.34499C13.0397 9.38758 13.0067 9.42476 12.9653 9.45323Z" fill="black"/>
<path d="M11.1027 5.5039L8.6665 6.08862L8.76802 6.428L11.2042 5.84328L11.1027 5.5039Z" fill="black"/>
<path d="M11.7031 6.36028L9.98682 6.77222L10.0883 7.1116L11.8046 6.69965L11.7031 6.36028Z" fill="black"/>
<path d="M12.2083 7.16688L11.21 7.40649L11.3115 7.74587L12.3098 7.50626L12.2083 7.16688Z" fill="black"/>
<path d="M9.37529 8.75013L8.37695 8.98975L8.47847 9.32912L9.47681 9.08951L9.37529 8.75013Z" fill="black"/>
<path d="M3.39823 4.1796L2.82812 4.70972L3.11061 4.95348L3.68072 4.42336L3.39823 4.1796Z" fill="black"/>
<path d="M3.84918 4.79589L3.47559 5.15015L3.76118 5.39181L4.13478 5.03755L3.84918 4.79589Z" fill="black"/>
<path d="M4.10096 6.20837C4.10088 6.15491 4.09695 6.10151 4.08919 6.04851C4.3358 5.95776 4.55024 5.80868 4.70957 5.6172C4.8689 5.42573 4.96714 5.19907 4.99379 4.96145C5.02043 4.72383 4.97448 4.48419 4.86084 4.26816C4.7472 4.05213 4.57014 3.86783 4.34861 3.73496C4.12708 3.60209 3.8694 3.52566 3.60312 3.51383C3.33684 3.50199 3.07198 3.55521 2.83686 3.66779C2.60173 3.78037 2.40519 3.94808 2.26824 4.15297C2.13129 4.35787 2.05909 4.59226 2.05935 4.83107C2.05935 4.88553 2.05935 4.93999 2.07112 4.9927C1.8252 5.08371 1.61149 5.23284 1.45282 5.42418C1.29416 5.61551 1.19649 5.84186 1.17025 6.07905C1.14401 6.31623 1.19018 6.55535 1.30384 6.77086C1.4175 6.98636 1.59437 7.17017 1.81557 7.30265C2.03677 7.43512 2.29399 7.51129 2.55975 7.52302C2.82551 7.53475 3.08984 7.48159 3.3245 7.36923C3.55916 7.25687 3.75535 7.08953 3.89211 6.88507C4.02886 6.68061 4.10105 6.44672 4.10096 6.20837ZM3.53025 3.86486C3.74359 3.86486 3.95214 3.92153 4.12952 4.02769C4.30691 4.13386 4.44516 4.28477 4.5268 4.46132C4.60845 4.63787 4.62981 4.83215 4.58819 5.01957C4.54657 5.207 4.44383 5.37916 4.29298 5.51429C4.14213 5.64942 3.94993 5.74144 3.74069 5.77872C3.53145 5.81601 3.31457 5.79687 3.11747 5.72374C2.92037 5.65061 2.75191 5.52677 2.63338 5.36788C2.51486 5.20898 2.45159 5.02217 2.45159 4.83107C2.45211 4.57496 2.56592 4.32947 2.7681 4.14837C2.97027 3.96727 3.24433 3.86532 3.53025 3.86486ZM2.63006 7.17459C2.38539 7.17397 2.14822 7.09885 1.95749 6.96157C1.76676 6.8243 1.6338 6.63301 1.58044 6.41912C1.52707 6.20523 1.55647 5.98144 1.66381 5.78449C1.77115 5.58754 1.95005 5.42913 2.17114 5.33526C2.28291 5.57577 2.47157 5.78131 2.7134 5.92604C2.95522 6.07076 3.23942 6.14821 3.53025 6.14864C3.58798 6.14869 3.64565 6.14517 3.70284 6.1381C3.70284 6.1627 3.70284 6.18553 3.70284 6.20837C3.70284 6.46372 3.59001 6.70868 3.38899 6.88973C3.18797 7.07078 2.91512 7.17319 2.63006 7.17459Z" fill="black"/>
<path d="M2.09521 5.89495L1.72168 6.24927L2.00732 6.49089L2.38085 6.13657L2.09521 5.89495Z" fill="black"/>
<path d="M2.94042 6.1596L2.56689 6.51392L2.85253 6.75554L3.22606 6.40122L2.94042 6.1596Z" fill="black"/>
<path d="M5.85425 4.78553L6.01703 4.88566L7.05843 3.51364C7.17147 3.63644 7.30356 3.74411 7.45067 3.83336L7.61345 3.93174L9.60211 1.30891L9.44129 1.21053C9.24924 1.0922 9.03293 1.00912 8.80484 0.966083C8.57675 0.923044 8.3414 0.920899 8.11239 0.959772C7.88337 0.998645 7.66521 1.07777 7.47051 1.19257C7.27582 1.30737 7.10843 1.45558 6.97802 1.62864C6.9161 1.71096 6.86229 1.79795 6.8172 1.88864C6.53571 1.89508 6.25993 1.96117 6.01245 2.08148C5.76496 2.20179 5.55281 2.3729 5.39337 2.5808C5.26158 2.75277 5.16909 2.94639 5.12121 3.15053C5.07333 3.35466 5.07102 3.56526 5.1144 3.7702C5.15779 3.97513 5.24602 4.17035 5.37401 4.34461C5.502 4.51887 5.66721 4.66872 5.86014 4.78553H5.85425ZM7.30162 1.82539C7.40351 1.69095 7.53414 1.57592 7.68596 1.48697C7.83778 1.39802 8.00778 1.3369 8.18612 1.30715C8.27153 1.29317 8.35817 1.28612 8.445 1.28607C8.65495 1.28595 8.86217 1.3286 9.05101 1.4108L7.51147 3.43458C7.26693 3.23344 7.11121 2.9603 7.07269 2.66492C7.03417 2.36954 7.11541 2.0716 7.30162 1.82539ZM5.71305 2.77755C5.82526 2.6323 5.97077 2.51015 6.13987 2.41927C6.30897 2.32839 6.49776 2.27086 6.69365 2.25053C6.6554 2.4393 6.6554 2.6327 6.69365 2.82147C6.72082 2.94893 6.76562 3.07286 6.82701 3.19039L5.92094 4.39201C5.67634 4.19085 5.52074 3.91755 5.48257 3.62208C5.44439 3.32662 5.52621 3.02871 5.71305 2.78282V2.77755Z" fill="black"/>
<path d="M8.89771 2.405C8.76562 2.57703 8.67287 2.7708 8.62482 2.97511C8.57677 3.17942 8.57438 3.39023 8.61777 3.59538C8.66117 3.80052 8.7495 3.99593 8.87766 4.17033C9.00582 4.34474 9.17128 4.49467 9.36448 4.61149L9.52529 4.71162L11.5218 2.08703L11.361 1.98689C11.1689 1.86857 10.9526 1.78549 10.7245 1.74245C10.4964 1.69941 10.2611 1.69727 10.0321 1.73614C9.80306 1.77501 9.5849 1.85413 9.3902 1.96893C9.19551 2.08374 9.02812 2.23194 8.89771 2.405ZM10.0999 2.08527C10.1851 2.06985 10.2719 2.06219 10.3588 2.06244C10.5683 2.06276 10.7749 2.10603 10.9629 2.18892L9.43116 4.21622C9.23812 4.06301 9.09717 3.8642 9.02445 3.64256C8.95173 3.42091 8.95017 3.1854 9.01997 2.963C9.08977 2.7406 9.22809 2.54031 9.41909 2.38507C9.61009 2.22984 9.84605 2.12594 10.0999 2.08527Z" fill="black"/>
</svg>
