<svg width="37" height="15" viewBox="0 0 37 15" fill="none" xmlns="http://www.w3.org/2000/svg">
<g clip-path="url(#clip0)">
<path d="M17.4996 7.32899V11.7246H16.1326V0.866968H19.7562C20.6303 0.847981 21.475 1.18659 22.1027 1.80684C22.7381 2.3907 23.0961 3.22614 23.0822 4.09798C23.1008 4.97614 22.7428 5.81791 22.1027 6.40336C21.4688 7.02044 20.6861 7.32899 19.7562 7.3274L17.4996 7.32899ZM17.4996 2.20399V5.99513H19.7903C20.2986 6.01095 20.7884 5.80684 21.1417 5.43342C21.8593 4.72139 21.8764 3.54893 21.1774 2.81633C21.165 2.80368 21.1541 2.79102 21.1417 2.77994C20.793 2.39861 20.3002 2.18975 19.7903 2.20399H17.4996ZM26.2315 4.05367C27.242 4.05367 28.0387 4.32899 28.623 4.87962C29.2073 5.43025 29.4986 6.18658 29.4986 7.14544V11.7246H28.1921V10.6929H28.1332C27.5675 11.5426 26.8143 11.9666 25.875 11.9666C25.0738 11.9666 24.4027 11.7246 23.8633 11.2388C23.3395 10.7878 23.0419 10.1201 23.0543 9.41917C23.0543 8.65019 23.3395 8.03943 23.9083 7.58532C24.4771 7.1312 25.2365 6.90335 26.1881 6.90335C26.9987 6.90335 27.6682 7.05525 28.1921 7.35747V7.03785C28.1952 6.56 27.9875 6.10747 27.628 5.80367C27.2668 5.47139 26.7957 5.28943 26.309 5.29576C25.5465 5.29576 24.942 5.62487 24.4972 6.28152L23.2945 5.50779C23.9548 4.53785 24.9343 4.05367 26.2315 4.05367ZM24.4631 9.45082C24.4616 9.81158 24.6305 10.1502 24.9157 10.3606C25.2179 10.6027 25.593 10.7325 25.9773 10.7246C26.5539 10.723 27.1072 10.4888 27.5148 10.0727C27.9674 9.63753 28.1937 9.12804 28.1937 8.54101C27.7674 8.19449 27.1738 8.02044 26.4113 8.02044C25.8565 8.02044 25.393 8.15652 25.0226 8.43025C24.6491 8.70873 24.4631 9.04576 24.4631 9.45082ZM37 4.29576L32.4387 14.9999H31.0284L32.7208 11.2546L29.7203 4.29576H31.2051L33.3733 9.63278H33.4028L35.5121 4.29576H37Z" fill="#5F6368"/>
<path d="M11.9774 6.37934C11.9774 5.95371 11.9433 5.52966 11.872 5.11035H6.10962V7.51225H9.40929C9.2729 8.28757 8.83274 8.97269 8.18954 9.40782V10.9679H10.1594C11.3125 9.88409 11.9774 8.27807 11.9774 6.37934Z" fill="#4285F4"/>
<path d="M6.10952 12.4759C7.75858 12.4759 9.14726 11.9237 10.1593 10.9696L8.18944 9.40949C7.64079 9.78924 6.9356 10.006 6.10952 10.006C4.51625 10.006 3.16322 8.90949 2.67966 7.43164H0.650879V9.03924C1.68774 11.1468 3.80021 12.4759 6.10952 12.4759Z" fill="#34A853"/>
<path d="M2.67972 7.43178C2.42399 6.65804 2.42399 5.81785 2.67972 5.04412V3.43652H0.650945C-0.216982 5.19918 -0.216982 7.27671 0.650945 9.03937L2.67972 7.43178Z" fill="#FBBC04"/>
<path d="M6.10951 2.47032C6.98054 2.45608 7.82212 2.79152 8.45292 3.40544L10.1981 1.62538C9.09146 0.565253 7.62684 -0.0170258 6.10951 0.000379243C3.80021 0.000379243 1.68774 1.33108 0.650879 3.43709L2.67966 5.04468C3.16322 3.56683 4.51625 2.47032 6.10951 2.47032Z" fill="#EA4335"/>
</g>
<defs>
<clipPath id="clip0">
<rect width="37" height="15" fill="white"/>
</clipPath>
</defs>
</svg>
