<svg width="12" height="14" viewBox="0 0 12 14" fill="none" xmlns="http://www.w3.org/2000/svg">
<path fill-rule="evenodd" clip-rule="evenodd" d="M5.64183 0.705886C5.85248 0.542049 6.14744 0.542049 6.35809 0.705886L11.6081 4.78922C11.7502 4.89973 11.8333 5.06966 11.8333 5.24967V11.6663C11.8333 12.1305 11.6489 12.5756 11.3207 12.9038C10.9925 13.232 10.5474 13.4163 10.0833 13.4163H1.91663C1.4525 13.4163 1.00738 13.232 0.679189 12.9038C0.351 12.5756 0.166626 12.1305 0.166626 11.6663V5.24967C0.166626 5.06966 0.249735 4.89973 0.391827 4.78922L5.64183 0.705886ZM1.33329 5.53497V11.6663C1.33329 11.8211 1.39475 11.9694 1.50415 12.0788C1.61354 12.1882 1.76192 12.2497 1.91663 12.2497H10.0833C10.238 12.2497 10.3864 12.1882 10.4958 12.0788C10.6052 11.9694 10.6666 11.821 10.6666 11.6663V5.53497L5.99996 1.90534L1.33329 5.53497Z" fill="white"/>
<path fill-rule="evenodd" clip-rule="evenodd" d="M3.66663 6.99967C3.66663 6.67751 3.92779 6.41634 4.24996 6.41634H7.74996C8.07213 6.41634 8.33329 6.67751 8.33329 6.99967V12.833C8.33329 13.1552 8.07213 13.4163 7.74996 13.4163C7.42779 13.4163 7.16663 13.1552 7.16663 12.833V7.58301H4.83329V12.833C4.83329 13.1552 4.57213 13.4163 4.24996 13.4163C3.92779 13.4163 3.66663 13.1552 3.66663 12.833V6.99967Z" fill="white"/>
</svg>
