<svg width="39" height="15" viewBox="0 0 39 15" fill="none" xmlns="http://www.w3.org/2000/svg">
<path d="M29.9966 4.00981C30.149 3.88546 30.2252 3.82328 30.3013 3.76111C31.3601 2.84401 32.716 2.94505 33.6224 4.03313C33.7138 4.14194 33.7595 4.14971 33.8509 4.05645C33.9119 3.9865 33.9804 3.93209 34.0414 3.86214C34.7498 3.15489 35.6867 2.94505 36.5627 3.34142C37.4843 3.76111 37.9795 4.49945 37.9871 5.53313C38.0023 7.7637 37.9947 9.9865 37.9947 12.2171C37.9947 13.0098 37.5148 13.5072 36.7455 13.5072C36.4408 13.5072 36.1361 13.4839 35.8314 13.515C35.5191 13.5461 35.4277 13.445 35.4277 13.1108C35.4429 10.9347 35.4353 8.75852 35.4353 6.58235C35.4353 6.48909 35.4353 6.40359 35.4353 6.31033C35.4277 5.80515 35.2297 5.5953 34.7574 5.57199C34.3308 5.54867 34.0338 5.81292 33.9881 6.25593C33.9804 6.35696 33.9881 6.46577 33.9881 6.56681C33.9881 8.44764 33.9881 10.3207 33.9881 12.2015C33.9881 13.0254 33.5234 13.5072 32.716 13.4994C32.3047 13.4917 31.7486 13.686 31.5125 13.414C31.3068 13.1808 31.4439 12.629 31.4439 12.2171C31.4439 10.2896 31.4439 8.35437 31.4439 6.42691C31.4439 5.74297 31.0097 5.39323 30.4461 5.62639C30.0957 5.77406 29.9814 6.06163 29.9814 6.43468C29.989 8.23779 29.9814 10.0331 29.9814 11.8362C29.9814 11.9761 29.9814 12.1238 29.9814 12.2637C29.9586 13.0176 29.4863 13.4917 28.755 13.4994C28.4504 13.5072 28.1457 13.4761 27.841 13.5072C27.5134 13.5383 27.4144 13.445 27.422 13.0875C27.4373 10.0331 27.4297 6.97872 27.4297 3.91655C27.4297 3.78442 27.4373 3.66007 27.4297 3.52795C27.4144 3.35696 27.483 3.30256 27.6505 3.30256C28.3513 3.31033 29.0445 3.31033 29.7453 3.30256C29.9205 3.30256 30.0043 3.34919 29.989 3.54349C29.9738 3.68339 29.989 3.80774 29.9966 4.00981Z" fill="#02B9EF"/>
<path d="M13.8481 8.22249C13.8481 9.28725 13.8481 10.3442 13.8481 11.409C13.8405 12.7924 13.1321 13.5075 11.7762 13.5152C11.1821 13.5152 10.5803 13.523 9.98618 13.5152C8.78266 13.4997 7.89907 12.6836 7.83813 11.4556C7.79242 10.5774 7.78481 9.6914 7.83051 8.81316C7.89145 7.55409 8.83598 6.66808 10.0852 6.65254C10.4127 6.64477 10.7479 6.65254 11.0754 6.65254C11.3954 6.64477 11.5172 6.45824 11.5096 6.14736C11.5096 5.83648 11.3725 5.69658 11.0678 5.71213C10.725 5.7199 10.3823 5.7199 10.0395 5.71213C9.2016 5.69658 8.73696 5.23026 8.74457 4.39088C8.74457 4.04891 8.59223 3.59036 8.81313 3.38829C9.00356 3.21731 9.43774 3.32611 9.76528 3.32611C10.6184 3.31834 11.4639 3.32611 12.317 3.32611C13.2235 3.32611 13.8405 3.95565 13.8481 4.88829C13.8557 5.99192 13.8481 7.11109 13.8481 8.22249ZM11.5172 9.98674C11.5172 9.85461 11.5172 9.73026 11.5172 9.59814C11.5172 8.80539 11.5172 8.80539 10.7403 8.83648C10.3518 8.85202 10.1385 9.05409 10.1309 9.46601C10.1233 9.79244 10.1233 10.1111 10.1309 10.4375C10.1385 10.9971 10.3823 11.1448 11.1745 11.1681C11.761 11.1836 11.4639 10.7639 11.5172 10.5308C11.5477 10.3598 11.5096 10.1655 11.5172 9.98674Z" fill="#06306F"/>
<path d="M20.6274 7.37579C20.6274 8.56491 20.6426 9.7618 20.6197 10.9509C20.6045 11.868 20.3912 12.6996 19.5229 13.1893C19.1725 13.3836 18.7916 13.4924 18.3955 13.5001C17.5195 13.5157 16.6436 13.5001 15.7676 13.5157C15.5543 13.5157 15.5086 13.438 15.5162 13.2437C15.5315 12.9172 15.5086 12.5986 15.5238 12.2722C15.5391 11.6504 16.0037 11.1763 16.6131 11.153C17.0092 11.1374 17.3977 11.1452 17.7938 11.153C18.1137 11.153 18.2889 11.0209 18.2889 10.6711C18.2889 10.3136 18.1213 10.1893 17.8014 10.1815C17.2682 10.1659 16.735 10.2437 16.2094 10.0882C15.3029 9.8162 14.6402 9.04677 14.6174 8.09081C14.5717 6.57527 14.6022 5.05972 14.5945 3.54418C14.5945 3.37319 14.6479 3.31879 14.8154 3.32656C15.44 3.33433 16.057 3.34211 16.6817 3.32656C16.9559 3.31879 16.9178 3.47423 16.9178 3.64522C16.9178 4.7877 16.9178 5.92242 16.9178 7.0649C16.9178 7.56231 17.1463 7.82656 17.5729 7.84211C18.0756 7.85765 18.2965 7.64781 18.2965 7.12708C18.2965 5.97682 18.3041 4.81879 18.2889 3.66853C18.2889 3.39651 18.3574 3.31879 18.624 3.32656C19.1801 3.34988 19.7438 3.35765 20.2998 3.32656C20.6045 3.31102 20.6502 3.4276 20.6426 3.69962C20.6197 4.91983 20.6274 6.14781 20.6274 7.37579Z" fill="#06306F"/>
<path d="M1.21889 9.13942C1.21889 7.87258 1.21889 6.59796 1.21889 5.33113C1.21889 4.0876 1.96538 3.3104 3.19174 3.32594C3.99155 3.33371 4.79135 3.23268 5.58354 3.38812C6.59663 3.59019 7.23647 4.39071 7.24409 5.45548C7.2517 6.58242 7.24409 7.70936 7.24409 8.8363C7.24409 10.2508 6.42905 11.1135 5.04272 11.1524C4.62377 11.1679 4.20483 11.1601 3.78588 11.1524C3.59545 11.1446 3.51166 11.2068 3.51928 11.4166C3.53452 11.7275 3.5269 12.0384 3.51928 12.3493C3.50405 13.0177 3.0394 13.4995 2.39194 13.5073C2.01108 13.5151 1.5312 13.6705 1.28745 13.4451C1.05893 13.2353 1.22651 12.7379 1.21889 12.3648C1.21127 11.2923 1.21889 10.212 1.21889 9.13942ZM3.51928 7.23527C3.51928 7.48397 3.51928 7.72491 3.51928 7.97361C3.51928 8.85185 3.51928 8.85185 4.38002 8.77413C4.75327 8.74304 4.92846 8.55651 4.93608 8.17568C4.9437 7.74045 4.92084 7.29745 4.9437 6.86221C4.9894 5.60314 4.76088 5.7275 3.75542 5.71973C3.5726 5.71973 3.51166 5.77413 3.51166 5.96066C3.5269 6.38035 3.51928 6.80781 3.51928 7.23527Z" fill="#06306F"/>
<path d="M22.7831 9.15508C22.7831 8.12141 22.7755 7.07995 22.7907 6.04628C22.7907 5.80534 22.7374 5.70431 22.4784 5.71208C22.1357 5.72762 21.6786 5.82866 21.4882 5.65767C21.2521 5.43229 21.4349 4.95042 21.4044 4.57736C21.4044 4.55405 21.4044 4.52296 21.4044 4.49964C21.4044 4.13436 21.2902 3.7069 21.4425 3.43488C21.5948 3.16286 22.0595 3.33384 22.387 3.24835C23.0345 3.07736 23.522 2.69653 23.9181 2.16804C24.1923 1.81052 24.5351 1.55405 24.9769 1.46856C25.213 1.42192 25.3577 1.45301 25.3425 1.76389C25.3196 2.19913 25.3425 2.64213 25.3349 3.08514C25.3273 3.27166 25.3958 3.33384 25.5786 3.32607C25.8833 3.3183 26.188 3.33384 26.4927 3.3183C26.6755 3.31052 26.7364 3.38047 26.7288 3.567C26.7212 4.20431 26.7212 4.83384 26.7288 5.47115C26.7288 5.6499 26.6831 5.74317 26.4927 5.71985C26.4546 5.71208 26.4165 5.71985 26.3784 5.71985C26.0433 5.75094 25.5786 5.56441 25.4034 5.79757C25.2359 6.01519 25.3425 6.46596 25.3425 6.81571C25.3425 8.9297 25.3349 11.0359 25.3501 13.1499C25.3501 13.4452 25.2739 13.5385 24.9845 13.5152C24.7103 13.4919 24.4284 13.5152 24.1466 13.5074C23.3239 13.4763 22.7831 12.909 22.7831 12.0696C22.7831 11.0981 22.7831 10.1266 22.7831 9.15508Z" fill="#02B9EF"/>
</svg>
