<svg width="58" height="21" viewBox="0 0 58 21" fill="none" xmlns="http://www.w3.org/2000/svg">
<path d="M8.81473 1.72461C3.94669 1.72461 0.000488281 5.6538 0.000488281 10.5004C0.000488281 15.3475 3.94669 19.2762 8.81429 19.2762C13.6819 19.2762 17.6285 15.3475 17.6285 10.5004C17.6285 5.6538 13.6823 1.72461 8.81473 1.72461Z" fill="#673AB7"/>
<path d="M12.845 8.12245V8.42257C12.845 8.51095 12.8226 8.57701 12.7782 8.6212C12.7338 8.66538 12.6675 8.6877 12.5787 8.6877H12.1165H11.6542C11.6028 8.6877 11.5646 8.70126 11.5387 8.72926C11.5132 8.75726 11.5005 8.79926 11.5005 8.85482V12.4253V15.9948C11.5005 16.0832 11.4781 16.1497 11.4341 16.1934C11.3897 16.2376 11.3229 16.2599 11.2342 16.2599H10.8629H10.4921C10.4033 16.2599 10.3365 16.2376 10.2921 16.1934C10.2482 16.1497 10.2258 16.0836 10.2258 15.9948V14.7046V13.4149H10.1985H10.1704C10.0579 13.61 9.89448 13.7561 9.67961 13.8541C9.46519 13.9517 9.19936 14.0003 8.88123 14.0003H8.67823H8.47523C8.15316 14.0003 7.86316 13.953 7.60523 13.8589C7.34687 13.7653 7.12102 13.624 6.92725 13.4354C6.73348 13.2478 6.58848 13.0246 6.49137 12.7683C6.3947 12.511 6.34593 12.2196 6.34593 11.895V10.3747V8.85482C6.34593 8.80407 6.33539 8.76426 6.3143 8.73626C6.29364 8.70826 6.26201 8.69207 6.21983 8.6877H5.81339H5.40739C5.31863 8.6877 5.25228 8.66407 5.2079 8.6177C5.16352 8.57132 5.14111 8.5022 5.14111 8.40857V8.11588V7.82276C5.14111 7.7392 5.16352 7.6762 5.2079 7.63507C5.25228 7.59307 5.31863 7.57207 5.40739 7.57207H7.47034H9.53329C9.23495 7.26276 8.94583 6.93551 8.66637 6.58945C8.38692 6.24295 8.11757 5.87851 7.85833 5.49438L7.46595 4.91513L7.07445 4.33676C7.05599 4.30482 7.04237 4.2707 7.0327 4.23613C7.02348 4.20113 7.0182 4.16526 7.0182 4.12807C7.0182 4.05851 7.03578 4.00601 7.07093 3.97101C7.10564 3.93645 7.15837 3.91895 7.22823 3.91895H7.65533H8.08242C8.16634 3.91895 8.23884 3.93645 8.29992 3.97101C8.36055 4.00601 8.40977 4.05851 8.44711 4.12807L9.44849 5.73195L10.4499 7.33538C10.5017 7.41457 10.5575 7.47407 10.6186 7.51301C10.6792 7.55238 10.7447 7.57207 10.8146 7.57207H10.8497H10.8849H11.732H12.5792C12.6679 7.57207 12.7343 7.59263 12.7787 7.63507C12.823 7.67663 12.8454 7.7392 12.8454 7.82276V8.12245H12.845Z" fill="white"/>
<path d="M10.0717 8.6875H8.92317H7.77459C7.72274 8.6875 7.68407 8.70106 7.65859 8.72906C7.6331 8.75706 7.62036 8.79906 7.62036 8.85462V10.3124V11.7692C7.62036 12.1319 7.70912 12.4036 7.88663 12.5847C8.06415 12.7663 8.33042 12.8569 8.68501 12.8569H8.87395H9.06289C9.2593 12.8569 9.43023 12.8319 9.57567 12.7821C9.72155 12.7322 9.84238 12.6569 9.93773 12.5572C10.0335 12.457 10.1056 12.3393 10.1535 12.2037C10.2014 12.0672 10.2255 11.9136 10.2255 11.7417V10.2984V8.85506C10.2255 8.7995 10.2128 8.75706 10.1869 8.7295C10.1614 8.70106 10.1232 8.6875 10.0717 8.6875Z" fill="#673AB7"/>
<path d="M23.6141 11.9037V14.243H22.5134V7.93555H24.9371C25.645 7.93555 26.207 8.1193 26.6231 8.48636C27.0392 8.85342 27.2475 9.33948 27.2475 9.94367C27.2475 10.5627 27.0436 11.044 26.6363 11.3879C26.2285 11.7322 25.6582 11.9041 24.9244 11.9041H23.6141V11.9037ZM23.6141 11.0199H24.9367C25.3282 11.0199 25.627 10.9285 25.833 10.7447C26.0387 10.5614 26.1419 10.2963 26.1419 9.9498C26.1419 9.60898 26.0374 9.33686 25.8287 9.13298C25.6199 8.92911 25.3326 8.82455 24.967 8.81886H23.6137V11.0199H23.6141Z" fill="#212121"/>
<path d="M29.2377 10.0668C29.583 9.6682 30.0193 9.4687 30.5475 9.4687C31.5511 9.4687 32.0603 10.0392 32.0748 11.1802V14.2431H31.0176V11.2191C31.0176 10.8958 30.9473 10.6666 30.8067 10.5323C30.6661 10.398 30.4592 10.3306 30.1867 10.3306C29.7632 10.3306 29.4468 10.5183 29.2381 10.8936V14.2423H28.1809V7.58789H29.2381V10.0668H29.2377Z" fill="#212121"/>
<path d="M33.0337 11.8552C33.0337 11.3958 33.1251 10.9824 33.3079 10.614C33.4907 10.2456 33.7473 9.96259 34.0781 9.76484C34.409 9.56709 34.7886 9.46777 35.2179 9.46777C35.8533 9.46777 36.3687 9.67165 36.7646 10.0785C37.1605 10.4858 37.3745 11.0257 37.4065 11.6986L37.4109 11.9458C37.4109 12.4078 37.3217 12.8208 37.1433 13.1848C36.9649 13.5488 36.7097 13.8305 36.3775 14.0296C36.0453 14.2291 35.6617 14.3284 35.2267 14.3284C34.5623 14.3284 34.0307 14.1083 33.6321 13.6678C33.2332 13.2276 33.0337 12.6405 33.0337 11.9068V11.8552ZM34.0909 11.9462C34.0909 12.4288 34.1911 12.8063 34.391 13.0793C34.5913 13.3523 34.8695 13.4884 35.2263 13.4884C35.5831 13.4884 35.8608 13.3497 36.0594 13.0723C36.258 12.795 36.3573 12.3894 36.3573 11.8548C36.3573 11.381 36.2553 11.0056 36.0506 10.7282C35.8458 10.4508 35.5681 10.3121 35.2175 10.3121C34.8721 10.3121 34.5979 10.4486 34.3949 10.7216C34.1919 10.9946 34.0909 11.4033 34.0909 11.9462Z" fill="#212121"/>
<path d="M39.3754 9.55537L39.4058 10.097C39.7538 9.67831 40.2107 9.46875 40.7762 9.46875C41.7565 9.46875 42.2557 10.0279 42.2733 11.1452V14.2427H41.2161V11.2061C41.2161 10.9086 41.1515 10.6885 41.0223 10.5454C40.8931 10.4024 40.6822 10.3311 40.3891 10.3311C39.9629 10.3311 39.6452 10.5231 39.4361 10.9072V14.2432H38.3789V9.55537H39.3754Z" fill="#212121"/>
<path d="M45.5124 14.3288C44.8424 14.3288 44.2993 14.1188 43.8832 13.6984C43.4671 13.2784 43.2588 12.7188 43.2588 12.0197V11.8898C43.2588 11.4221 43.3493 11.0038 43.5308 10.6355C43.7118 10.2671 43.9667 9.98052 44.2944 9.77534C44.6222 9.57015 44.9878 9.46777 45.3907 9.46777C46.0318 9.46777 46.527 9.67165 46.8768 10.0785C47.2265 10.4854 47.401 11.062 47.401 11.8071V12.2315H44.3248C44.3568 12.6186 44.4865 12.9245 44.7141 13.1498C44.9417 13.3751 45.2282 13.4875 45.5735 13.4875C46.0577 13.4875 46.4523 13.2928 46.7568 12.9026L47.3267 13.4442C47.1382 13.7246 46.8864 13.9416 46.5718 14.0961C46.2572 14.2518 45.9039 14.3288 45.5124 14.3288ZM45.3863 10.313C45.0963 10.313 44.8621 10.4141 44.6837 10.6162C44.5054 10.8183 44.3915 11.1001 44.3423 11.461H46.357V11.3831C46.3337 11.031 46.2396 10.7645 46.0744 10.5838C45.9083 10.4031 45.679 10.313 45.3863 10.313Z" fill="#212121"/>
<path d="M49.513 11.9037V14.243H48.4124V7.93555H50.836C51.5439 7.93555 52.1059 8.1193 52.522 8.48636C52.9381 8.85342 53.1464 9.33948 53.1464 9.94367C53.1464 10.5627 52.9425 11.044 52.5352 11.3879C52.1274 11.7322 51.5571 11.9041 50.8233 11.9041H49.513V11.9037ZM49.513 11.0199H50.8356C51.2271 11.0199 51.5259 10.9285 51.732 10.7447C51.9376 10.5614 52.0409 10.2963 52.0409 9.9498C52.0409 9.60898 51.9363 9.33686 51.7276 9.13298C51.5189 8.92911 51.2315 8.82455 50.8659 8.81886H49.5126V11.0199H49.513Z" fill="#212121"/>
<path d="M56.1108 14.3288C55.4407 14.3288 54.8977 14.1188 54.4816 13.6984C54.0654 13.2784 53.8572 12.7188 53.8572 12.0197V11.8898C53.8572 11.4221 53.9477 11.0038 54.1292 10.6355C54.3102 10.2671 54.565 9.98052 54.8928 9.77534C55.2206 9.57015 55.5862 9.46777 55.9891 9.46777C56.6302 9.46777 57.1254 9.67165 57.4751 10.0785C57.8249 10.4858 57.9993 11.062 57.9993 11.8071V12.2315H54.9231C54.9552 12.6186 55.0848 12.9245 55.3124 13.1498C55.5401 13.3751 55.8265 13.4875 56.1719 13.4875C56.6561 13.4875 57.0507 13.2928 57.3552 12.9026L57.9251 13.4442C57.7366 13.7246 57.4848 13.9416 57.1702 14.0961C56.8556 14.2518 56.5023 14.3288 56.1108 14.3288ZM55.9847 10.313C55.6947 10.313 55.4605 10.4141 55.2821 10.6162C55.1037 10.8183 54.9899 11.1001 54.9407 11.461H56.9553V11.3831C56.932 11.031 56.838 10.7645 56.6728 10.5838C56.5067 10.4031 56.2778 10.313 55.9847 10.313Z" fill="#212121"/>
</svg>
