<svg width="11" height="8" viewBox="0 0 11 8" fill="none" xmlns="http://www.w3.org/2000/svg">
<path d="M10.78 6.62619H10.1512C10.1501 6.62618 10.1491 6.62577 10.1479 6.62577H8.99293V5.44786H9.73433C10.2205 5.44786 10.6143 5.09644 10.6143 4.66259V1.84933C10.6143 1.41547 10.2205 1.06405 9.73433 1.06405H8.99293V0.196325C8.99293 0.0883538 8.89614 0 8.77294 0H4.81955V1.58429L5.57193 1.92393C5.64674 1.95731 5.69295 2.02405 5.69295 2.09865V3.84001C5.69295 3.94995 5.59394 4.03632 5.47294 4.03632H3.72614C3.60514 4.03632 3.50615 3.94995 3.50615 3.84001V2.09865C3.50615 2.02405 3.55234 1.95731 3.62714 1.92393L4.37953 1.58429V0H2.22574C2.10475 0 2.00575 0.0883538 2.00575 0.196325V6.62577H0.85295C0.851829 6.62577 0.850808 6.62618 0.84967 6.62619H0.220007C0.0984015 6.62619 0 6.714 0 6.8225C0 6.93102 0.0984015 7.01883 0.220007 7.01883H0.745567L1.52615 7.92344C1.56795 7.97251 1.63174 8 1.69995 8H9.30092C9.36913 8 9.43294 7.97251 9.47474 7.92344L10.2553 7.01883H10.78C10.9016 7.01883 11 6.93102 11 6.8225C11 6.714 10.9016 6.62619 10.78 6.62619ZM8.99293 1.45669H9.73433C9.97853 1.45669 10.1743 1.63338 10.1743 1.84933V4.66259C10.1743 4.87854 9.97853 5.05522 9.73433 5.05522H8.99293V1.45669Z" fill="black"/>
</svg>
