<svg width="16" height="14" viewBox="0 0 16 14" fill="none" xmlns="http://www.w3.org/2000/svg">
<path d="M16 7C16 10.8578 12.4089 14 8 14C3.59111 14 0 10.8578 0 7C0 5.04 0.942222 3.18889 2.56 1.86667H1.42222C1.22667 1.86667 1.06667 1.72667 1.06667 1.55556C1.06667 1.38444 1.22667 1.24444 1.42222 1.24444H3.55556C3.59111 1.24444 3.64444 1.24444 3.68 1.26C3.69778 1.26 3.71556 1.27556 3.73333 1.27556H3.75111C3.76889 1.27556 3.76889 1.29111 3.78667 1.30667C3.78667 1.30667 3.80444 1.30667 3.80444 1.32222C3.82222 1.33778 3.82222 1.33778 3.84 1.35333L3.85778 1.36889C3.85778 1.38444 3.87556 1.38444 3.87556 1.4C3.87556 1.41556 3.89333 1.41556 3.89333 1.43111C3.89333 1.43111 3.89333 1.43111 3.89333 1.44667C3.89333 1.46222 3.91111 1.47778 3.91111 1.50889C3.91111 1.52444 3.91111 1.52444 3.91111 1.54C3.91111 1.55556 3.91111 1.55556 3.91111 1.57111V3.43778C3.91111 3.60889 3.75111 3.74889 3.55556 3.74889C3.36 3.74889 3.2 3.60889 3.2 3.43778V2.22444C1.63556 3.40667 0.711111 5.16444 0.711111 7C0.711111 10.5156 3.98222 13.3778 8 13.3778C12.0178 13.3778 15.2889 10.5156 15.2889 7C15.2889 3.48444 12.0178 0.622222 8 0.622222C7.80444 0.622222 7.64444 0.482222 7.64444 0.311111C7.64444 0.14 7.80444 0 8 0C12.4089 0 16 3.14222 16 7ZM4.08889 7C4.08889 5.11778 5.84889 3.57778 8 3.57778C10.1511 3.57778 11.9111 5.11778 11.9111 7C11.9111 8.88222 10.1511 10.4222 8 10.4222C5.84889 10.4222 4.08889 8.88222 4.08889 7ZM7.64444 7C7.64444 7.17111 7.80444 7.31111 8 7.31111H9.77778C9.97333 7.31111 10.1333 7.17111 10.1333 7C10.1333 6.82889 9.97333 6.68889 9.77778 6.68889H8.35556V4.82222C8.35556 4.65111 8.19556 4.51111 8 4.51111C7.80444 4.51111 7.64444 4.65111 7.64444 4.82222V7Z" fill="black"/>
</svg>
