<svg width="20" height="17" viewBox="0 0 20 17" fill="none" xmlns="http://www.w3.org/2000/svg">
<path d="M17.9131 4.65576H10.5482L15.0978 0.580392C15.2461 0.447568 15.2461 0.232416 15.0978 0.0996182C14.9496 -0.0332061 14.7094 -0.0332061 14.5611 0.0996182L9.63194 4.51497L7.46834 2.57707C7.32005 2.44425 7.07986 2.44425 6.93158 2.57707C6.78333 2.70987 6.78333 2.92502 6.93158 3.05785L8.7156 4.65576H1.44417C0.752133 4.65576 0.189453 5.15995 0.189453 5.77968V15.7718C0.189453 16.3916 0.752133 16.8958 1.44417 16.8958H17.9131C18.6051 16.8958 19.1678 16.3916 19.1678 15.7718V5.77968C19.1678 5.15995 18.6051 4.65576 17.9131 4.65576ZM18.4087 15.7718C18.4087 16.0165 18.1863 16.2158 17.9131 16.2158H1.44417C1.17099 16.2158 0.948584 16.0165 0.948584 15.7718V5.77968C0.948584 5.53498 1.17099 5.33576 1.44417 5.33576H17.9131C18.1863 5.33576 18.4087 5.53498 18.4087 5.77968V15.7718Z" fill="black"/>
<path d="M14.3336 6.01562H2.08734C1.87754 6.01562 1.70776 6.16786 1.70776 6.35561V15.1956C1.70776 15.3834 1.87754 15.5356 2.08734 15.5356H14.3336C14.5434 15.5356 14.7131 15.3834 14.7131 15.1956V6.35561C14.7131 6.16786 14.5434 6.01562 14.3336 6.01562ZM13.954 14.8556H2.46689V6.69562H13.954V14.8556Z" fill="black"/>
<path d="M15.8649 7.21979H17.2568C17.4666 7.21979 17.6363 7.06755 17.6363 6.87981C17.6363 6.69203 17.4666 6.53979 17.2568 6.53979H15.8649C15.6551 6.53979 15.4854 6.69203 15.4854 6.87981C15.4854 7.06755 15.6551 7.21979 15.8649 7.21979Z" fill="black"/>
<path d="M15.8649 8.63657H17.2568C17.4666 8.63657 17.6363 8.48433 17.6363 8.29655C17.6363 8.10878 17.4666 7.95654 17.2568 7.95654H15.8649C15.6551 7.95654 15.4854 8.10878 15.4854 8.29655C15.4854 8.48433 15.6551 8.63657 15.8649 8.63657Z" fill="black"/>
<path d="M15.8649 10.0533H17.2568C17.4666 10.0533 17.6363 9.90105 17.6363 9.71328C17.6363 9.52553 17.4666 9.37329 17.2568 9.37329H15.8649C15.6551 9.37329 15.4854 9.52553 15.4854 9.71328C15.4854 9.90105 15.6551 10.0533 15.8649 10.0533Z" fill="black"/>
<path d="M16.5608 12.9717C15.9329 12.9717 15.4221 13.4292 15.4221 13.9917C15.4221 14.5541 15.9329 15.0117 16.5608 15.0117C17.1887 15.0117 17.6995 14.5541 17.6995 13.9917C17.6995 13.4292 17.1887 12.9717 16.5608 12.9717ZM16.5608 14.3317C16.3514 14.3317 16.1813 14.1791 16.1813 13.9917C16.1813 13.8043 16.3514 13.6517 16.5608 13.6517C16.7702 13.6517 16.9404 13.8043 16.9404 13.9917C16.9404 14.1791 16.7702 14.3317 16.5608 14.3317Z" fill="black"/>
</svg>
