<svg width="14" height="14" viewBox="0 0 14 14" fill="none" xmlns="http://www.w3.org/2000/svg">
<path fill-rule="evenodd" clip-rule="evenodd" d="M2.60427 9.02126C3.15125 8.47428 3.89312 8.16699 4.66667 8.16699H9.33333C10.1069 8.16699 10.8487 8.47428 11.3957 9.02126C11.9427 9.56825 12.25 10.3101 12.25 11.0837V12.2503C12.25 12.5725 11.9888 12.8337 11.6667 12.8337C11.3445 12.8337 11.0833 12.5725 11.0833 12.2503V11.0837C11.0833 10.6195 10.899 10.1744 10.5708 9.84622C10.2426 9.51803 9.79746 9.33366 9.33333 9.33366H4.66667C4.20254 9.33366 3.75742 9.51803 3.42923 9.84622C3.10104 10.1744 2.91667 10.6195 2.91667 11.0837V12.2503C2.91667 12.5725 2.6555 12.8337 2.33333 12.8337C2.01117 12.8337 1.75 12.5725 1.75 12.2503V11.0837C1.75 10.3101 2.05729 9.56825 2.60427 9.02126Z" fill="white"/>
<path fill-rule="evenodd" clip-rule="evenodd" d="M7.00004 2.33366C6.03354 2.33366 5.25004 3.11716 5.25004 4.08366C5.25004 5.05016 6.03354 5.83366 7.00004 5.83366C7.96654 5.83366 8.75004 5.05016 8.75004 4.08366C8.75004 3.11716 7.96654 2.33366 7.00004 2.33366ZM4.08337 4.08366C4.08337 2.47283 5.38921 1.16699 7.00004 1.16699C8.61087 1.16699 9.91671 2.47283 9.91671 4.08366C9.91671 5.69449 8.61087 7.00033 7.00004 7.00033C5.38921 7.00033 4.08337 5.69449 4.08337 4.08366Z" fill="white"/>
</svg>
