<svg width="31" height="31" viewBox="0 0 31 31" fill="none" xmlns="http://www.w3.org/2000/svg">
<path d="M13.7653 19.5914H11.6364L12.9669 11.4147H15.096L13.7653 19.5914ZM9.84552 11.4147L7.816 17.0387L7.57584 15.8276L7.57606 15.8281L6.85974 12.1509C6.85974 12.1509 6.77313 11.4147 5.8499 11.4147H2.49469L2.45532 11.5531C2.45532 11.5531 3.48135 11.7666 4.68214 12.4877L6.53166 19.5916H8.74972L12.1366 11.4147H9.84552ZM26.5898 19.5914H28.5446L26.8403 11.4144H25.129C24.3387 11.4144 24.1463 12.0238 24.1463 12.0238L20.9713 19.5914H23.1904L23.6342 18.3768H26.3405L26.5898 19.5914ZM24.2473 16.699L25.3659 13.6391L25.9951 16.699H24.2473ZM21.1377 13.381L21.4415 11.6251C21.4415 11.6251 20.5041 11.2686 19.5268 11.2686C18.4704 11.2686 15.9617 11.7303 15.9617 13.9755C15.9617 16.0879 18.9061 16.1141 18.9061 17.2237C18.9061 18.3333 16.265 18.1345 15.3934 17.4348L15.0769 19.2707C15.0769 19.2707 16.0275 19.7325 17.4798 19.7325C18.9326 19.7325 21.1242 18.9803 21.1242 16.933C21.1242 14.8071 18.1533 14.6091 18.1533 13.6848C18.1535 12.7602 20.2268 12.879 21.1377 13.381Z" fill="#2566AF"/>
<path d="M7.57605 15.8274L6.85974 12.1503C6.85974 12.1503 6.77312 11.4141 5.84989 11.4141H2.49469L2.45532 11.5525C2.45532 11.5525 4.06796 11.8867 5.61477 13.1389C7.09377 14.3358 7.57605 15.8274 7.57605 15.8274Z" fill="#E6A540"/>
</svg>
